<?xml version="1.0" encoding="UTF-8"?>
<svg width="98px" height="88px" viewBox="0 0 98 88" version="1.1" xmlns="http://www.w3.org/2000/svg" xmlns:xlink="http://www.w3.org/1999/xlink">
    <title>Cloudy</title>
    <g id="Homepage" stroke="none" stroke-width="1" fill="none" fill-rule="evenodd">
        <g id="Desktop-Opt2" transform="translate(-296.000000, -270.000000)">
            <g id="Main-Widget" transform="translate(272.000000, 98.000000)">
                <g id="Group" transform="translate(24.000000, 150.000000)">
                    <rect id="frame" x="10" y="0" width="96" height="96"></rect>
                    <path d="M71.625,24.5 C76.4671982,24.5 80.8544358,26.3928466 84.0288605,29.463918 C87.1728386,32.5055341 89.125,36.7053691 89.125,41.3488372 C89.125,43.007295 88.8766167,44.60962 88.4132161,46.1226777 C88.1973547,46.8274907 87.9319919,47.5222237 87.6166806,48.2022278 C88.2995343,48.4179489 88.96622,48.7016545 89.6101086,49.0514903 C91.4180727,50.0337884 92.8864158,51.4506034 93.9008415,53.2011523 C94.9395793,54.9936555 95.5,57.1284821 95.5,59.4883721 C95.5,61.848262 94.9395793,63.9830886 93.9008415,65.7755918 C92.8850032,67.5285784 91.4139799,68.9468916 89.6025598,69.9293517 C87.7201523,70.9503133 85.4783758,71.5 83,71.5 L83,71.5 L33,71.5 C30.5216242,71.5 28.2798477,70.9503133 26.3974402,69.9293517 C24.5860201,68.9468916 23.1149968,67.5285784 22.0991585,65.7755918 C21.0604207,63.9830886 20.5,61.848262 20.5,59.4883721 C20.5,57.1284821 21.0604207,54.9936555 22.0991585,53.2011523 C23.1149968,51.4481658 24.5860201,50.0298526 26.3974402,49.0473925 C26.979526,48.7316865 27.5965384,48.4607718 28.2446281,48.2372771 L28.2446281,48.2372771 L30.2109908,47.5591739 L29.9018314,45.5022765 C29.8167031,44.9359013 29.7727273,44.3566459 29.7727273,43.7674419 C29.7727273,40.4597323 31.1652446,37.4691995 33.4044007,35.3029461 C35.6740034,33.1072375 38.811241,31.755814 42.2727273,31.755814 C45.8696938,31.755814 49.1167662,33.2152121 51.4036338,35.5647252 C52.6026202,36.7965561 53.5498879,38.285623 54.1656503,39.940603 C54.3339599,38.1802989 54.7740672,36.4512645 55.4859781,34.8219936 C56.8300606,31.7459421 59.093291,29.139243 61.9373981,27.3150204 C64.7138566,25.5341879 68.0448302,24.5 71.625,24.5 Z" id="shape" stroke="#1C1C1C" stroke-width="5"></path>
                    <path d="M53.625,60.5 C58.4671982,60.5 62.8544358,62.3928466 66.0288605,65.463918 C69.1728386,68.5055341 71.125,72.7053691 71.125,77.3488372 C71.125,79.007295 70.8766167,80.60962 70.4132161,82.1226777 C70.1973547,82.8274907 69.9319919,83.5222237 69.6166806,84.2022278 C70.2995343,84.4179489 70.96622,84.7016545 71.6101086,85.0514903 C73.4180727,86.0337884 74.8864158,87.4506034 75.9008415,89.2011523 C76.9395793,90.9936555 77.5,93.1284821 77.5,95.4883721 C77.5,97.848262 76.9395793,99.9830886 75.9008415,101.775592 C74.8850032,103.528578 73.4139799,104.946892 71.6025598,105.929352 C69.7201523,106.950313 67.4783758,107.5 65,107.5 L65,107.5 L15,107.5 C12.5216242,107.5 10.2798477,106.950313 8.39744016,105.929352 C6.58602008,104.946892 5.11499681,103.528578 4.0991585,101.775592 C3.06042071,99.9830886 2.5,97.848262 2.5,95.4883721 C2.5,93.1284821 3.06042071,90.9936555 4.0991585,89.2011523 C5.11499681,87.4481658 6.58602008,86.0298526 8.39744016,85.0473925 C8.979526,84.7316865 9.59653838,84.4607718 10.2446281,84.2372771 L10.2446281,84.2372771 L12.2109908,83.5591739 L11.9018314,81.5022765 C11.8167031,80.9359013 11.7727273,80.3566459 11.7727273,79.7674419 C11.7727273,76.4597323 13.1652446,73.4691995 15.4044007,71.3029461 C17.6740034,69.1072375 20.811241,67.755814 24.2727273,67.755814 C27.8696938,67.755814 31.1167662,69.2152121 33.4036338,71.5647252 C34.6026202,72.7965561 35.5498879,74.285623 36.1656503,75.940603 C36.3339599,74.1802989 36.7740672,72.4512645 37.4859781,70.8219936 C38.8300606,67.7459421 41.093291,65.139243 43.9373981,63.3150204 C46.7138566,61.5341879 50.0448302,60.5 53.625,60.5 L53.625,60.5 Z" id="shape-copy" stroke="#1C1C1C" stroke-width="5" fill="#FFFFFF"></path>
                </g>
            </g>
        </g>
    </g>
</svg>