<?xml version="1.0" encoding="UTF-8"?>
<svg width="38px" height="36px" viewBox="0 0 38 36" version="1.1" xmlns="http://www.w3.org/2000/svg" xmlns:xlink="http://www.w3.org/1999/xlink">
    <title>Cloudy Copy</title>
    <g id="Homepage" stroke="none" stroke-width="1" fill="none" fill-rule="evenodd">
        <g id="Desktop-Opt2" transform="translate(-651.000000, -407.000000)">
            <g id="Right-Widget" transform="translate(598.000000, 177.000000)">
                <g id="Day-Pill-Active" transform="translate(0.000000, 181.000000)">
                    <g id="Cloudy-Copy" transform="translate(53.000000, 49.000000)">
                        <rect id="frame" x="7.18181818" y="0" width="30.5454545" height="30.5454545"></rect>
                        <path d="M26.7897727,8 C28.2747827,8 29.6205868,8.57994564 30.5942331,9.52189184 C31.5557008,10.4520559 32.1534091,11.7362183 32.1534091,13.1564482 C32.1534091,13.6633263 32.0775306,14.1530556 31.9358994,14.6154981 C31.8467576,14.9065569 31.7299827,15.1919845 31.584968,15.4682317 C31.8710093,15.5360717 32.1492891,15.6428445 32.4146564,15.7870231 C32.9563682,16.0813445 33.3965843,16.5056333 33.7005631,17.030196 C34.0141268,17.5712988 34.1818182,18.2160197 34.1818182,18.9281184 C34.1818182,19.640217 34.0141268,20.284938 33.7005631,20.8260408 C33.3961592,21.3513369 32.9551359,21.7760748 32.4123861,22.0704461 C31.8412413,22.380218 31.160781,22.5454545 30.4090909,22.5454545 L30.4090909,22.5454545 L14.5,22.5454545 C13.7483099,22.5454545 13.0678497,22.380218 12.4967048,22.0704461 C11.953955,21.7760748 11.5129317,21.3513369 11.2085278,20.8260408 C10.8949641,20.284938 10.7272727,19.640217 10.7272727,18.9281184 C10.7272727,18.2160197 10.8949641,17.5712988 11.2085278,17.030196 C11.5129317,16.5048999 11.953955,16.080162 12.4967048,15.7857907 C12.6721929,15.6906112 12.8582263,15.6089736 13.0536112,15.5415948 L13.0536112,15.5415948 L13.8401563,15.2703536 L13.7164925,14.4475946 C13.6908981,14.2773099 13.677686,14.1031521 13.677686,13.9260042 C13.677686,12.9307884 14.0973257,12.031404 14.7708955,11.3797644 C15.4566439,10.7163427 16.4047207,10.3086681 17.4504132,10.3086681 C18.5369534,10.3086681 19.5181962,10.748861 20.2091253,11.4587171 L20.2091253,11.4587171 L21.2465343,12.5245445 L21.842063,11.1616245 C22.2536317,10.2197132 22.9469748,9.42185809 23.8177864,8.86331576 C24.6695552,8.3169876 25.691496,8 26.7897727,8 Z" id="shape" stroke="#FFFFFF" stroke-width="2"></path>
                        <path d="M20.625,17 C22.4769124,17 24.1548843,17.7238203 25.3689729,18.8983804 C26.5708828,20.0611583 27.3173077,21.6666738 27.3173077,23.4418605 C27.3173077,24.0758153 27.2223684,24.6883144 27.0452308,25.2666899 C26.9584999,25.5498764 26.8508621,25.8288051 26.7220399,26.1014296 C26.9970355,26.1851456 27.265337,26.2976855 27.5239878,26.4382149 C28.2130501,26.8125943 28.7727235,27.3525373 29.1593536,28.0197274 C29.5556821,28.7036537 29.7692308,29.5182458 29.7692308,30.4186047 C29.7692308,31.3189635 29.5556821,32.1335556 29.1593536,32.8174819 C28.7721848,33.4856016 28.2114891,34.0261156 27.5211091,34.4005571 C26.8023342,34.7903991 25.946286,35 25,35 L25,35 L5.76923077,35 C4.82294477,35 3.96689662,34.7903991 3.24812164,34.4005571 C2.55774165,34.0261156 1.99704594,33.4856016 1.60987722,32.8174819 C1.21354869,32.1335556 1,31.3189635 1,30.4186047 C1,29.5182458 1.21354869,28.7036537 1.60987722,28.0197274 C1.99704594,27.3516077 2.55774165,26.8110937 3.24812164,26.4366522 C3.47017292,26.3162182 3.70555075,26.2128782 3.95278044,26.1276206 L3.95278044,26.1276206 L4.73932555,25.8563794 L4.61566178,25.0336204 C4.58320064,24.8176501 4.56643357,24.5967683 4.56643357,24.372093 C4.56643357,23.1106596 5.09761076,21.9702604 5.95151219,21.1441604 C6.81759225,20.3062783 8.01479498,19.7906977 9.33566434,19.7906977 C10.7082166,19.7906977 11.9473285,20.3474615 12.8199901,21.2440285 C13.318106,21.7557896 13.7023241,22.3839103 13.9334593,23.0835356 C13.9834219,22.348654 14.1565657,21.6251868 14.4529278,20.9469359 C14.9668564,19.7707649 15.8322949,18.7741206 16.9197644,18.076613 C17.9816817,17.3954946 19.2556962,17 20.625,17 Z" id="shape-copy" stroke="#FFFFFF" stroke-width="2" fill="#6D1EFF"></path>
                    </g>
                </g>
            </g>
        </g>
    </g>
</svg>