<?xml version="1.0" encoding="UTF-8"?>
<svg width="34px" height="35px" viewBox="0 0 34 35" version="1.1" xmlns="http://www.w3.org/2000/svg" xmlns:xlink="http://www.w3.org/1999/xlink">
    <title>Cloudy Copy</title>
    <g id="Homepage" stroke="none" stroke-width="1" fill="none" fill-rule="evenodd">
        <g id="Desktop-Opt2" transform="translate(-941.000000, -407.000000)">
            <g id="Right-Widget" transform="translate(598.000000, 177.000000)">
                <g id="Day-Pill-Copy-2" transform="translate(286.000000, 181.000000)">
                    <g id="Cloudy-Copy" transform="translate(57.000000, 49.000000)">
                        <rect id="frame" x="3.18181818" y="0" width="30.5454545" height="30.5454545"></rect>
                        <path d="M22.7897727,8 C24.2747827,8 25.6205868,8.57994564 26.5942331,9.52189184 C27.5557008,10.4520559 28.1534091,11.7362183 28.1534091,13.1564482 C28.1534091,13.6633263 28.0775306,14.1530556 27.9358994,14.6154981 C27.8467576,14.9065569 27.7299827,15.1919845 27.584968,15.4682317 C27.8710093,15.5360717 28.1492891,15.6428445 28.4146564,15.7870231 C28.9563682,16.0813445 29.3965843,16.5056333 29.7005631,17.030196 C30.0141268,17.5712988 30.1818182,18.2160197 30.1818182,18.9281184 C30.1818182,19.640217 30.0141268,20.284938 29.7005631,20.8260408 C29.3961592,21.3513369 28.9551359,21.7760748 28.4123861,22.0704461 C27.8412413,22.380218 27.160781,22.5454545 26.4090909,22.5454545 L26.4090909,22.5454545 L10.5,22.5454545 C9.7483099,22.5454545 9.06784966,22.380218 8.49670483,22.0704461 C7.95395498,21.7760748 7.51293166,21.3513369 7.20852778,20.8260408 C6.89496411,20.284938 6.72727273,19.640217 6.72727273,18.9281184 C6.72727273,18.2160197 6.89496411,17.5712988 7.20852778,17.030196 C7.51293166,16.5048999 7.95395498,16.080162 8.49670483,15.7857907 C8.67219292,15.6906112 8.85822631,15.6089736 9.05361116,15.5415948 L9.05361116,15.5415948 L9.84015627,15.2703536 L9.7164925,14.4475946 C9.69089806,14.2773099 9.67768595,14.1031521 9.67768595,13.9260042 C9.67768595,12.9307884 10.0973257,12.031404 10.7708955,11.3797644 C11.4566439,10.7163427 12.4047207,10.3086681 13.4504132,10.3086681 C14.5369534,10.3086681 15.5181962,10.748861 16.2091253,11.4587171 L16.2091253,11.4587171 L17.2465343,12.5245445 L17.842063,11.1616245 C18.2536317,10.2197132 18.9469748,9.42185809 19.8177864,8.86331576 C20.6695552,8.3169876 21.691496,8 22.7897727,8 Z" id="shape" stroke="#1C1C1C" stroke-width="2"></path>
                        <path d="M17.0625,19.4545455 C18.5475099,19.4545455 19.8933141,20.0344911 20.8669604,20.9764373 C21.8284281,21.9066014 22.4261364,23.1907637 22.4261364,24.6109937 C22.4261364,25.1178718 22.3502579,25.6076011 22.2086267,26.0700436 C22.1194848,26.3611024 22.00271,26.64653 21.8576952,26.9227771 C22.1437366,26.9906171 22.4220164,27.0973899 22.6873837,27.2415686 C23.2290954,27.5358899 23.6693115,27.9601788 23.9732904,28.4847415 C24.2868541,29.0258442 24.4545455,29.6705652 24.4545455,30.3826638 C24.4545455,31.0947625 24.2868541,31.7394835 23.9732904,32.2805862 C23.6688865,32.8058824 23.2278632,33.2306203 22.6851133,33.5249915 C22.1139685,33.8347634 21.4335083,34 20.6818182,34 L20.6818182,34 L4.77272727,34 C4.02103717,34 3.34057693,33.8347634 2.76943211,33.5249915 C2.22668225,33.2306203 1.78565894,32.8058824 1.48125506,32.2805862 C1.16769138,31.7394835 1,31.0947625 1,30.3826638 C1,29.6705652 1.16769138,29.0258442 1.48125506,28.4847415 C1.78565894,27.9594453 2.22668225,27.5347074 2.76943211,27.2403361 C2.94492019,27.1451567 3.13095359,27.063519 3.32633843,26.9961403 L3.32633843,26.9961403 L4.11288354,26.724899 L3.98921977,25.9021401 C3.96362534,25.7318553 3.95041322,25.5576976 3.95041322,25.3805497 C3.95041322,24.3853338 4.37005296,23.4859495 5.04362273,22.8343099 C5.72937113,22.1708882 6.67744798,21.7632135 7.7231405,21.7632135 C8.80968071,21.7632135 9.79092345,22.2034064 10.4818526,22.9132626 L10.4818526,22.9132626 L11.5192616,23.9790899 L12.1147903,22.6161699 C12.526359,21.6742586 13.2197021,20.8764035 14.0905137,20.3178612 C14.9422824,19.7715331 15.9642233,19.4545455 17.0625,19.4545455 Z" id="shape-copy" stroke="#1C1C1C" stroke-width="2" fill="#FFFFFF"></path>
                    </g>
                </g>
            </g>
        </g>
    </g>
</svg>